<?xml version="1.0" standalone="no"?>
<!DOCTYPE svg PUBLIC "-//W3C//DTD SVG 20010904//EN"
 "http://www.w3.org/TR/2001/REC-SVG-20010904/DTD/svg10.dtd">
<svg version="1.0" xmlns="http://www.w3.org/2000/svg"
 width="1136.000000pt" height="653.000000pt" viewBox="0 0 1136.000000 653.000000"
 preserveAspectRatio="xMidYMid meet">

<g transform="translate(0.000000,653.000000) scale(0.100000,-0.100000)"
fill="#000000" stroke="none">
<path d="M3050 5294 c-248 -29 -436 -87 -547 -170 -17 -13 -42 -24 -55 -25
-13 0 -17 -3 -11 -6 8 -3 0 -22 -26 -56 -75 -102 -75 -182 0 -283 71 -96 208
-170 417 -225 l117 -31 425 -5 c234 -3 439 -3 455 -1 29 3 29 4 -20 26 -28 12
-55 32 -60 44 -6 12 -27 30 -49 41 l-38 20 -67 -21 c-234 -74 -575 -75 -793
-1 -204 69 -328 181 -328 294 0 113 130 229 330 293 119 39 236 54 395 54 305
-1 541 -78 662 -216 84 -96 70 -210 -37 -303 -19 -16 -44 -34 -54 -40 -18 -10
-18 -11 7 -27 14 -10 52 -21 85 -26 32 -4 82 -20 111 -35 29 -14 55 -24 58
-21 3 2 4 84 4 181 -1 176 -2 178 -32 239 -86 174 -380 291 -754 300 -88 3
-176 2 -195 0z"/>
<path d="M3065 5199 c-290 -26 -515 -159 -515 -304 0 -40 35 -115 54 -115 21
0 30 19 13 26 -8 3 -20 23 -27 44 -38 116 97 248 315 305 216 57 515 38 699
-44 308 -136 239 -383 -133 -477 -186 -47 -430 -42 -606 13 -82 26 -155 61
-155 75 0 4 -7 5 -15 2 -25 -10 -17 -19 49 -52 191 -93 506 -115 752 -51 172
44 304 136 332 228 39 130 -106 264 -350 325 -59 15 -260 38 -303 35 -11 -1
-60 -5 -110 -10z"/>
<path d="M6119 5162 c-44 -37 0 -72 90 -72 97 0 141 38 89 74 -33 24 -149 22
-179 -2z"/>
<path d="M4492 5142 c-58 -21 -112 -66 -112 -93 0 -36 63 -69 162 -85 51 -9
97 -19 102 -24 30 -29 -74 -41 -176 -19 l-52 12 -28 -34 c-15 -18 -28 -36 -28
-40 0 -14 140 -33 245 -33 175 0 275 42 275 117 0 28 -6 36 -37 54 -21 11 -60
24 -88 27 -83 11 -145 29 -145 42 0 26 90 29 176 8 16 -4 30 4 53 28 30 33 30
33 8 42 -12 5 -85 10 -162 13 -119 3 -148 1 -193 -15z"/>
<path d="M7510 5000 l0 -160 220 0 220 0 0 40 0 40 -110 0 c-103 0 -110 1
-110 20 0 19 7 20 95 20 l95 0 0 35 0 34 -92 3 c-82 3 -93 5 -96 22 -6 29 16
36 116 36 l92 0 0 35 0 35 -215 0 -215 0 0 -160z"/>
<path d="M7223 5132 c-74 -2 -83 -5 -84 -22 -1 -11 -2 -25 -3 -32 0 -6 -16
-16 -33 -20 -29 -8 -33 -13 -33 -43 0 -32 3 -35 29 -35 35 0 41 -13 41 -91 l0
-59 95 0 94 0 3 73 3 72 33 3 c32 3 33 5 30 40 -3 32 -7 38 -33 42 -25 4 -31
11 -35 39 -6 40 0 38 -107 33z"/>
<path d="M5280 5049 c-63 -19 -88 -21 -94 -10 -5 7 -43 11 -97 11 l-89 0 0
-155 c0 -117 -3 -155 -12 -155 -9 0 -8 -4 2 -10 17 -11 186 -12 214 -1 18 7
18 8 3 14 -13 5 -17 19 -17 57 0 57 7 60 75 35 64 -23 144 -19 201 10 27 14
56 25 64 25 12 0 12 2 2 9 -10 6 -11 13 -1 34 16 34 -14 94 -59 120 -39 23
-141 31 -192 16z m41 -79 c44 -24 11 -70 -50 -70 -40 0 -81 19 -81 38 0 36 85
56 131 32z"/>
<path d="M5930 5048 c-63 -17 -100 -21 -100 -9 0 7 -32 11 -95 11 l-95 0 0
-110 0 -110 105 0 105 0 0 56 c0 54 1 55 37 70 20 9 54 14 75 12 l38 -4 0 48
c0 53 -4 55 -70 36z"/>
<path d="M6750 5049 c-63 -19 -88 -21 -94 -10 -5 7 -44 11 -102 11 l-94 0 0
-110 0 -110 105 0 105 0 0 69 c0 73 5 81 55 81 40 0 55 -25 55 -91 l0 -59 100
0 100 0 0 75 c0 86 -12 118 -49 135 -35 17 -138 22 -181 9z"/>
<path d="M8128 5053 l-48 -4 0 -110 0 -109 105 0 106 0 -2 50 c-3 69 13 85 91
85 l60 0 0 48 c0 42 -2 47 -22 47 -13 -1 -41 -7 -63 -15 -47 -17 -82 -19 -87
-5 -4 12 -77 19 -140 13z"/>
<path d="M8550 5052 c-6 -2 -10 -66 -10 -158 0 -116 -3 -154 -12 -155 -7 0 -4
-4 7 -9 28 -12 197 -12 215 0 10 6 11 10 3 10 -9 0 -13 18 -13 55 0 63 8 67
76 39 50 -21 155 -15 204 12 19 10 44 22 55 25 17 6 18 7 2 8 -14 1 -16 5 -7
20 24 46 2 100 -55 133 -33 19 -55 23 -122 23 -52 0 -87 -5 -95 -13 -14 -14
-50 -16 -63 -3 -10 9 -165 20 -185 13z m314 -78 c26 -10 21 -60 -6 -68 -43
-11 -86 -6 -109 13 -23 19 -24 19 -5 40 19 21 83 29 120 15z"/>
<path d="M6110 4940 l0 -110 105 0 105 0 0 110 0 110 -105 0 -105 0 0 -110z"/>
<path d="M3430 5020 c-56 -3 -79 -8 -67 -14 9 -4 17 -13 17 -20 0 -6 -63 -43
-140 -81 l-139 -69 -82 34 -81 33 -85 -42 c-100 -49 -106 -65 -9 -21 38 16 79
30 92 30 13 0 52 -16 87 -35 35 -19 69 -35 77 -35 12 0 97 37 260 113 73 34
90 38 120 31 34 -9 36 -8 53 30 9 21 17 42 17 47 0 5 -8 8 -17 7 -10 -1 -56
-4 -103 -8z"/>
<path d="M3385 4886 l-50 -23 -5 -108 c-3 -71 -1 -110 6 -116 13 -10 112 6
162 26 l32 14 0 100 0 100 -30 16 c-38 19 -54 18 -115 -9z"/>
<path d="M2895 4823 c-17 -9 -32 -17 -34 -19 -6 -5 -2 -115 5 -137 4 -11 12
-16 20 -13 8 3 44 -1 80 -10 36 -8 69 -12 74 -9 6 4 10 37 10 74 l0 67 -38 22
c-67 37 -85 41 -117 25z"/>
<path d="M3180 4791 l-85 -38 -3 -55 c-4 -73 5 -80 110 -76 l83 3 3 103 c2 78
0 102 -10 101 -7 0 -51 -17 -98 -38z"/>
<path d="M6708 4751 c-21 -10 -41 -21 -45 -24 -3 -4 38 -7 93 -7 l99 1 -45 24
c-53 28 -54 28 -102 6z"/>
<path d="M6853 4652 c-7 -4 -15 -27 -19 -50 -7 -42 -7 -42 25 -42 32 0 32 0
29 47 -3 47 -13 59 -35 45z"/>
<path d="M6578 4643 c-2 -4 -6 -25 -7 -45 -2 -34 0 -38 22 -38 28 0 41 23 28
48 -5 9 -9 22 -9 27 -1 12 -29 19 -34 8z"/>
<path d="M8347 4643 c-2 -5 -5 -25 -6 -45 -2 -35 0 -38 24 -38 28 0 41 21 29
48 -4 9 -6 23 -5 30 2 13 -35 17 -42 5z"/>
<path d="M4893 4612 c15 -15 27 -33 27 -40 0 -7 11 -12 25 -12 14 0 25 6 25
13 0 6 14 24 32 39 l33 27 -28 1 c-16 0 -38 -5 -50 -11 -16 -9 -22 -9 -25 0
-2 6 -18 11 -35 11 l-31 0 27 -28z"/>
<path d="M5620 4600 c0 -38 2 -40 30 -40 20 0 30 5 30 15 0 10 10 15 33 15 17
0 39 5 47 10 27 19 -17 40 -82 40 l-58 0 0 -40z"/>
<path d="M5998 4626 c-15 -11 -16 -17 -5 -39 17 -38 63 -38 70 1 9 46 -27 67
-65 38z"/>
<path d="M6459 4620 c-13 -10 -18 -19 -11 -20 6 0 12 -9 12 -20 0 -16 7 -20
30 -20 23 0 30 5 30 19 0 11 6 21 13 24 8 3 6 10 -8 21 -26 20 -38 20 -66 -4z"/>
<path d="M7108 4628 c-36 -13 -37 -45 -2 -58 54 -21 151 -5 161 26 5 16 -59
44 -99 43 -18 0 -45 -5 -60 -11z m90 -30 c-3 -7 -15 -13 -28 -13 -13 0 -25 6
-27 13 -3 8 6 12 27 12 21 0 30 -4 28 -12z"/>
<path d="M7700 4600 c0 -37 2 -40 29 -40 16 0 31 6 34 14 3 8 22 16 44 18 25
2 39 8 41 19 4 20 -25 29 -95 29 l-53 0 0 -40z"/>
<path d="M5063 4610 c-27 -11 -30 -35 -7 -44 9 -3 31 -6 49 -6 43 0 65 9 65
26 0 27 -64 41 -107 24z"/>
<path d="M5220 4596 c0 -27 16 -36 65 -36 49 0 65 9 65 36 0 30 -34 33 -50 4
-6 -11 -15 -20 -19 -20 -5 0 -11 9 -14 20 -8 30 -47 27 -47 -4z"/>
<path d="M5397 4613 c-4 -3 -7 -17 -7 -30 0 -19 5 -23 30 -23 19 0 30 5 30 14
0 8 10 18 23 22 21 8 21 8 -8 15 -42 9 -61 10 -68 2z"/>
<path d="M5845 4613 c-56 -14 -31 -53 35 -53 42 0 81 23 65 39 -13 12 -74 21
-100 14z"/>
<path d="M6135 4613 c-34 -9 -42 -23 -21 -39 24 -17 92 -19 102 -3 5 8 -1 10
-19 5 -14 -3 -29 -2 -32 4 -4 6 10 10 36 10 27 0 39 4 34 9 -13 12 -74 21
-100 14z"/>
<path d="M6286 4613 c-3 -4 -6 -17 -6 -30 0 -28 36 -32 56 -5 13 16 15 16 28
0 19 -25 56 -24 56 1 0 11 -5 23 -12 27 -15 10 -114 15 -122 7z"/>
<path d="M6678 4611 c-20 -6 -28 -24 -16 -38 6 -8 35 -13 75 -13 64 0 64 0 61
28 -3 26 -6 27 -55 27 -29 0 -58 -2 -65 -4z m59 -27 c-3 -3 -12 -4 -19 -1 -8
3 -5 6 6 6 11 1 17 -2 13 -5z"/>
<path d="M7300 4596 c0 -27 16 -36 65 -36 49 0 65 9 65 36 0 30 -34 33 -50 4
-6 -11 -15 -20 -19 -20 -5 0 -11 9 -14 20 -8 30 -47 27 -47 -4z"/>
<path d="M7480 4590 c0 -25 4 -30 25 -30 15 0 25 6 25 14 0 8 10 18 23 22 21
8 21 8 -8 15 -59 13 -65 11 -65 -21z"/>
<path d="M7918 4611 c-20 -6 -28 -24 -16 -38 6 -8 35 -13 75 -13 64 0 64 0 61
28 -3 26 -6 27 -55 27 -29 0 -58 -2 -65 -4z m59 -27 c-3 -3 -12 -4 -19 -1 -8
3 -5 6 6 6 11 1 17 -2 13 -5z"/>
<path d="M8085 4606 c-13 -10 -15 -15 -6 -16 11 0 11 -3 1 -15 -11 -13 -6 -15
31 -15 50 0 81 13 55 23 -9 4 -15 12 -14 19 4 19 -44 21 -67 4z"/>
<path d="M8229 4613 c-10 -2 -16 -13 -15 -29 1 -21 6 -24 36 -24 43 0 70 14
46 23 -9 4 -15 12 -14 19 3 13 -25 19 -53 11z"/>
<path d="M8454 4610 c-51 -20 -27 -50 40 -50 44 0 66 9 66 26 0 27 -64 41
-106 24z"/>
<path d="M8610 4590 c0 -25 4 -30 25 -30 16 0 25 6 25 15 0 8 7 15 15 15 8 0
15 -7 15 -15 0 -10 10 -15 31 -15 27 0 30 3 23 23 -9 31 -7 30 -74 33 l-60 4
0 -30z"/>
<path d="M6930 4570 c0 -5 9 -10 20 -10 11 0 20 5 20 10 0 6 -9 10 -20 10 -11
0 -20 -4 -20 -10z"/>
<path d="M8790 4570 c0 -5 9 -10 20 -10 11 0 20 5 20 10 0 6 -9 10 -20 10 -11
0 -20 -4 -20 -10z"/>
<path d="M2980 2450 c0 -5 11 -10 25 -10 l25 0 0 -125 0 -126 -30 16 c-73 38
-187 2 -224 -70 -30 -58 -30 -234 -1 -284 34 -58 68 -76 140 -76 56 0 67 3 94
29 l29 28 4 -23 c3 -23 6 -24 106 -27 65 -2 102 1 102 8 0 5 -9 10 -20 10 -20
0 -20 7 -20 330 l0 330 -115 0 c-70 0 -115 -4 -115 -10z m36 -281 c15 -17 19
-41 22 -142 4 -146 -8 -196 -51 -212 -49 -17 -57 7 -57 176 0 91 4 158 12 174
14 31 48 33 74 4z"/>
<path d="M6740 2450 c0 -5 11 -10 25 -10 l25 0 0 -125 0 -126 -30 16 c-73 38
-187 2 -224 -70 -30 -58 -30 -234 -1 -284 34 -58 68 -76 140 -76 56 0 67 3 94
29 l29 28 4 -23 c3 -23 6 -24 106 -27 65 -2 102 1 102 8 0 5 -9 10 -20 10 -20
0 -20 7 -20 330 l0 330 -115 0 c-70 0 -115 -4 -115 -10z m36 -281 c15 -17 19
-41 22 -142 4 -146 -8 -196 -51 -212 -49 -17 -57 7 -57 176 0 91 4 158 12 174
14 31 48 33 74 4z"/>
<path d="M7025 2450 c3 -5 17 -10 31 -10 l24 0 0 -320 0 -320 -25 0 c-14 0
-25 -4 -25 -10 0 -6 52 -10 135 -10 83 0 135 4 135 10 0 6 -11 10 -25 10 l-25
0 0 330 0 330 -116 0 c-74 0 -113 -4 -109 -10z"/>
<path d="M9465 2450 c3 -5 17 -10 31 -10 l24 0 0 -320 0 -320 -25 0 c-14 0
-25 -4 -25 -10 0 -6 50 -10 130 -10 80 0 130 4 130 10 0 6 -9 10 -20 10 -19 0
-20 7 -20 100 0 55 3 100 8 100 6 0 102 -182 102 -195 0 -3 -7 -5 -15 -5 -8 0
-15 -4 -15 -10 0 -6 48 -10 125 -10 77 0 125 4 125 10 0 6 -8 10 -17 10 -13 0
-40 43 -93 147 -41 81 -76 149 -77 152 -1 3 22 25 51 49 37 29 63 42 85 42 17
0 31 5 31 10 0 6 -37 10 -90 10 -53 0 -90 -4 -90 -10 0 -5 19 -10 41 -10 l41
0 -103 -85 -104 -85 -3 220 -2 220 -116 0 c-74 0 -113 -4 -109 -10z"/>
<path d="M1220 2411 c0 -6 14 -11 30 -11 l30 0 0 -300 0 -300 -30 0 c-16 0
-30 -4 -30 -10 0 -6 67 -10 181 -10 117 0 178 3 174 10 -3 6 -31 10 -61 10
l-54 0 0 119 0 118 76 6 c98 7 179 46 206 97 29 53 22 169 -12 206 -53 58 -96
68 -312 72 -142 3 -198 1 -198 -7z m325 -36 c24 -23 25 -31 25 -135 0 -145
-17 -180 -86 -180 l-24 0 0 170 0 170 30 0 c19 0 40 -9 55 -25z"/>
<path d="M4790 2410 c0 -5 14 -10 30 -10 l30 0 0 -300 0 -300 -30 0 c-16 0
-30 -5 -30 -11 0 -7 61 -10 203 -7 194 3 204 4 259 30 78 36 111 104 89 185
-14 50 -47 81 -110 102 l-49 17 47 21 c54 25 82 67 83 123 1 87 -41 130 -146
149 -76 14 -376 15 -376 1z m296 -16 c32 -9 44 -46 44 -138 0 -98 -20 -136
-71 -136 l-29 0 0 140 c0 152 -1 149 56 134z m19 -308 c42 -18 60 -72 52 -165
-6 -83 -29 -115 -85 -119 l-42 -3 0 150 c0 145 1 151 20 151 11 0 36 -6 55
-14z"/>
<path d="M7950 2411 c0 -6 14 -11 30 -11 l30 0 0 -300 0 -300 -30 0 c-16 0
-30 -4 -30 -10 0 -6 67 -10 181 -10 117 0 178 3 174 10 -3 6 -31 10 -61 10
l-54 0 0 119 0 118 76 6 c98 7 179 46 206 97 29 53 22 169 -12 206 -53 58 -96
68 -312 72 -142 3 -198 1 -198 -7z m325 -36 c24 -23 25 -31 25 -135 0 -145
-17 -180 -86 -180 l-24 0 0 170 0 170 30 0 c19 0 40 -9 55 -25z"/>
<path d="M4383 2348 l-83 -20 0 -59 c0 -57 -1 -59 -26 -59 -14 0 -23 -4 -19
-10 3 -5 15 -10 26 -10 18 0 19 -8 20 -152 0 -91 5 -167 12 -187 17 -49 56
-74 125 -79 82 -6 127 15 152 70 21 46 25 68 12 68 -4 0 -14 -19 -22 -42 -11
-30 -23 -45 -41 -52 -57 -20 -59 -14 -59 189 l0 185 55 0 c30 0 55 5 55 10 0
6 -25 10 -55 10 l-55 0 0 74 c0 41 -3 77 -7 79 -5 2 -45 -4 -90 -15z"/>
<path d="M2063 2201 c-17 -11 -36 -28 -42 -38 -9 -15 -10 -13 -11 15 l0 32
-110 0 c-67 0 -110 -4 -110 -10 0 -5 11 -10 25 -10 l25 0 0 -195 0 -195 -25 0
c-14 0 -25 -4 -25 -10 0 -6 53 -10 140 -10 87 0 140 4 140 10 0 6 -13 10 -30
10 l-30 0 0 143 c0 128 2 147 23 187 18 38 27 46 55 48 40 4 45 -23 7 -38 -57
-22 -16 -100 53 -100 53 0 77 28 77 87 0 37 -5 49 -28 69 -35 30 -89 32 -134
5z"/>
<path d="M2386 2205 c-96 -34 -136 -97 -136 -213 0 -145 78 -222 225 -222 102
0 171 34 206 101 26 51 35 151 19 209 -15 56 -72 114 -125 129 -54 15 -142 13
-189 -4z m131 -35 c17 -33 18 -319 1 -355 -15 -33 -62 -35 -80 -2 -18 31 -18
333 0 365 18 31 62 27 79 -8z"/>
<path d="M3966 2205 c-57 -20 -87 -46 -116 -96 -20 -36 -24 -57 -24 -119 0
-135 63 -207 186 -217 113 -9 177 24 213 110 22 52 1 47 -25 -7 -25 -54 -74
-81 -126 -71 -59 11 -69 39 -69 195 0 159 13 200 65 200 19 0 33 -7 40 -19 12
-23 3 -51 -16 -51 -10 0 -14 -12 -14 -39 0 -30 6 -44 22 -55 31 -22 84 -20
108 4 22 22 27 88 9 122 -27 51 -166 74 -253 43z"/>
<path d="M6212 2207 c-13 -7 -32 -27 -43 -43 l-19 -29 0 38 0 37 -110 0 c-67
0 -110 -4 -110 -10 0 -5 11 -10 25 -10 l25 0 0 -195 0 -195 -25 0 c-14 0 -25
-4 -25 -10 0 -6 50 -10 130 -10 80 0 130 4 130 10 0 6 -9 10 -20 10 -19 0 -20
7 -20 143 0 115 3 148 18 176 21 42 51 64 72 51 12 -8 16 -43 18 -190 4 -177
3 -180 -17 -180 -12 0 -21 -4 -21 -10 0 -6 50 -10 130 -10 80 0 130 4 130 10
0 6 -11 10 -25 10 l-25 0 -1 153 c-1 167 -10 209 -52 241 -33 25 -131 33 -165
13z"/>
<path d="M7480 2211 c-90 -28 -137 -81 -152 -173 -21 -121 38 -229 139 -257
48 -14 127 -14 175 -1 41 12 108 79 108 110 0 29 -7 25 -30 -20 -23 -45 -63
-70 -114 -70 -67 0 -105 60 -106 168 l0 42 130 0 c128 0 130 0 130 23 0 77
-53 156 -118 175 -44 13 -123 14 -162 3z m100 -30 c5 -11 10 -49 10 -85 l0
-66 -46 0 -47 0 5 70 c3 38 11 77 18 85 17 21 47 19 60 -4z"/>
<path d="M8643 2209 c-41 -12 -83 -62 -83 -100 0 -66 79 -101 134 -58 30 24
37 85 11 95 -24 10 -19 51 8 58 41 11 57 -24 57 -125 l0 -89 -51 0 c-74 0
-136 -19 -159 -48 -22 -27 -27 -91 -9 -124 14 -27 69 -48 124 -48 38 0 52 5
76 29 27 27 30 28 39 11 19 -35 121 -53 173 -29 30 14 45 39 53 89 4 27 3 40
-5 40 -6 0 -11 -12 -11 -26 0 -55 -41 -87 -54 -41 -3 12 -6 81 -6 153 0 120
-2 134 -23 165 -13 19 -38 39 -57 46 -41 14 -171 15 -217 2z m117 -379 c-6
-11 -17 -20 -24 -20 -43 0 -31 154 13 162 13 3 17 -8 19 -59 2 -35 -2 -72 -8
-83z"/>
<path d="M9176 2205 c-57 -20 -87 -46 -116 -96 -20 -36 -24 -57 -24 -119 0
-135 63 -207 186 -217 113 -9 177 24 213 110 22 52 1 47 -25 -7 -25 -54 -74
-81 -126 -71 -59 11 -69 39 -69 195 0 159 13 200 65 200 19 0 33 -7 40 -19 12
-23 3 -51 -16 -51 -10 0 -14 -12 -14 -39 0 -30 6 -44 22 -55 31 -22 84 -20
108 4 22 22 27 88 9 122 -27 51 -166 74 -253 43z"/>
<path d="M3260 2200 c0 -5 11 -10 24 -10 l24 0 4 -162 c3 -132 7 -169 21 -196
21 -39 69 -62 129 -62 43 0 108 30 108 50 0 5 5 10 10 10 6 0 10 -11 10 -25
l0 -25 105 0 c63 0 105 4 105 10 0 6 -11 10 -25 10 l-25 0 0 205 0 205 -105 0
c-63 0 -105 -4 -105 -10 0 -5 9 -10 21 -10 20 0 20 -4 17 -171 -3 -167 -4
-171 -27 -190 -13 -11 -31 -18 -40 -17 -14 3 -16 30 -19 201 l-2 197 -115 0
c-70 0 -115 -4 -115 -10z"/>
<path d="M5370 2200 c0 -5 11 -10 24 -10 l24 0 4 -162 c3 -132 7 -169 21 -196
21 -39 69 -62 129 -62 43 0 108 30 108 50 0 5 5 10 10 10 6 0 10 -11 10 -25
l0 -25 105 0 c63 0 105 4 105 10 0 6 -11 10 -25 10 l-25 0 0 205 0 205 -105 0
c-63 0 -105 -4 -105 -10 0 -5 9 -10 21 -10 20 0 20 -4 17 -171 -3 -167 -4
-171 -27 -190 -13 -11 -31 -18 -40 -17 -14 3 -16 30 -19 201 l-2 197 -115 0
c-70 0 -115 -4 -115 -10z"/>
</g>
</svg>
